<svg xmlns="http://www.w3.org/2000/svg" width="28" height="28" fill="currentColor"><path d="M14 2.333c-4.503 0-8.167 3.664-8.167 8.167 0 6.615 6.114 14.012 6.37 14.327.444.536 1.097.84 1.797.84.688 0 1.353-.315 1.797-.84.256-.315 6.37-7.747 6.37-14.327 0-4.503-3.664-8.167-8.167-8.167Zm0 21S8.167 16.345 8.167 10.5A5.835 5.835 0 0 1 14 4.667a5.835 5.835 0 0 1 5.833 5.833c0 5.81-5.833 12.833-5.833 12.833ZM14 7a3.51 3.51 0 0 0-3.5 3.5A3.51 3.51 0 0 0 14 14a3.51 3.51 0 0 0 3.5-3.5A3.51 3.51 0 0 0 14 7Zm0 4.667a1.17 1.17 0 0 1-1.167-1.167A1.17 1.17 0 0 1 14 9.333a1.17 1.17 0 0 1 1.167 1.167A1.17 1.17 0 0 1 14 11.667Z"/></svg>