<svg xmlns="http://www.w3.org/2000/svg" width="28" height="28" fill="currentColor"><path d="M21 4.667H7a4.665 4.665 0 0 0-4.666 4.666v9.345a4.665 4.665 0 0 0 4.667 4.667h14a4.665 4.665 0 0 0 4.666-4.667V9.333a4.665 4.665 0 0 0-4.666-4.666ZM21 7c.14 0 .269.023.409.035l-7.408 4.445-7.432-4.433c.14-.024.292-.047.443-.047h14-.011Zm2.334 11.678a2.34 2.34 0 0 1-2.333 2.334H7a2.34 2.34 0 0 1-2.334-2.334V9.333c0-.221.047-.431.105-.641l8.634 5.156c.186.105.385.164.595.164.21 0 .42-.059.595-.164l8.621-5.18c.059.21.105.432.105.665v9.345h.012Z"/></svg>