<svg xmlns="http://www.w3.org/2000/svg" width="28" height="28" fill="currentColor"><path d="M14 25.667c-6.416 0-11.666-5.25-11.666-11.667S7.584 2.333 14.001 2.333c6.416 0 11.666 5.25 11.666 11.667 0 1.867-.35 3.617-1.166 5.133-.234.584-.934.817-1.517.584-.583-.234-.817-.934-.583-1.517.7-1.283.933-2.683.933-4.2 0-5.133-4.2-9.333-9.333-9.333-5.134 0-9.334 4.2-9.334 9.333 0 4.783 3.617 8.633 8.167 9.217v-1.05c0-.7.467-1.167 1.167-1.167s1.166.467 1.166 1.167V24.5c0 .7-.466 1.167-1.166 1.167Zm-4.666-7c-.35 0-.7-.117-.933-.467C7.467 16.917 7 15.517 7 14c0-1.517.466-3.033 1.4-4.2.35-.467 1.166-.583 1.633-.233.467.35.583 1.166.233 1.633-.583.817-.933 1.75-.933 2.8 0 1.05.35 1.983.933 2.8.35.467.234 1.283-.233 1.633-.233.117-.467.234-.7.234Zm9.333 0c-.233 0-.466-.117-.7-.234-.466-.35-.583-1.166-.233-1.633.583-.817.933-1.75.933-2.8 0-1.05-.35-1.983-.933-2.8-.35-.467-.233-1.283.233-1.633.467-.35 1.284-.234 1.634.233.933 1.167 1.4 2.683 1.4 4.2 0 1.517-.467 3.033-1.4 4.2-.234.233-.584.467-.934.467Z"/></svg>